<mxfile host="Electron" agent="Mozilla/5.0 (X11; Linux x86_64) AppleWebKit/537.36 (KHTML, like Gecko) draw.io/26.1.1 Chrome/132.0.6834.210 Electron/34.3.3 Safari/537.36" version="26.1.1">
  <diagram name="Страница — 1" id="J5WZ8qXao1ZJkBVg7_6f">
    <mxGraphModel dx="1509" dy="2048" grid="1" gridSize="10" guides="1" tooltips="1" connect="1" arrows="1" fold="1" page="1" pageScale="1" pageWidth="827" pageHeight="1169" math="0" shadow="0">
      <root>
        <mxCell id="0" />
        <mxCell id="1" parent="0" />
        <mxCell id="6FhIKOZWXNV_ax2WuFwc-2" value="Пользователь" style="shape=umlActor;verticalLabelPosition=bottom;verticalAlign=top;html=1;outlineConnect=0;" vertex="1" parent="1">
          <mxGeometry x="120" y="430" width="30" height="60" as="geometry" />
        </mxCell>
        <mxCell id="6FhIKOZWXNV_ax2WuFwc-7" style="edgeStyle=orthogonalEdgeStyle;rounded=0;orthogonalLoop=1;jettySize=auto;html=1;endArrow=block;endFill=0;" edge="1" parent="1" source="6FhIKOZWXNV_ax2WuFwc-5">
          <mxGeometry relative="1" as="geometry">
            <mxPoint x="135" y="510" as="targetPoint" />
          </mxGeometry>
        </mxCell>
        <mxCell id="6FhIKOZWXNV_ax2WuFwc-5" value="Администратор" style="shape=umlActor;verticalLabelPosition=bottom;verticalAlign=top;html=1;outlineConnect=0;" vertex="1" parent="1">
          <mxGeometry x="120" y="640" width="30" height="60" as="geometry" />
        </mxCell>
        <mxCell id="6FhIKOZWXNV_ax2WuFwc-8" value="Запрос к экспертной системе" style="ellipse;whiteSpace=wrap;html=1;" vertex="1" parent="1">
          <mxGeometry x="294" y="130" width="120" height="80" as="geometry" />
        </mxCell>
        <mxCell id="6FhIKOZWXNV_ax2WuFwc-11" value="" style="endArrow=none;html=1;rounded=0;entryX=0;entryY=1;entryDx=0;entryDy=0;exitX=0.5;exitY=0;exitDx=0;exitDy=0;exitPerimeter=0;" edge="1" parent="1" source="6FhIKOZWXNV_ax2WuFwc-2" target="6FhIKOZWXNV_ax2WuFwc-8">
          <mxGeometry width="50" height="50" relative="1" as="geometry">
            <mxPoint x="140" y="430" as="sourcePoint" />
            <mxPoint x="190" y="380" as="targetPoint" />
          </mxGeometry>
        </mxCell>
        <mxCell id="6FhIKOZWXNV_ax2WuFwc-12" value="Просмотр своей истории запросов" style="ellipse;whiteSpace=wrap;html=1;" vertex="1" parent="1">
          <mxGeometry x="460" y="200" width="120" height="80" as="geometry" />
        </mxCell>
        <mxCell id="6FhIKOZWXNV_ax2WuFwc-13" value="" style="endArrow=none;html=1;rounded=0;entryX=0.005;entryY=0.671;entryDx=0;entryDy=0;entryPerimeter=0;" edge="1" parent="1" source="6FhIKOZWXNV_ax2WuFwc-2" target="6FhIKOZWXNV_ax2WuFwc-12">
          <mxGeometry width="50" height="50" relative="1" as="geometry">
            <mxPoint x="220" y="410" as="sourcePoint" />
            <mxPoint x="270" y="360" as="targetPoint" />
          </mxGeometry>
        </mxCell>
        <mxCell id="6FhIKOZWXNV_ax2WuFwc-14" value="Создание новых чаты" style="ellipse;whiteSpace=wrap;html=1;" vertex="1" parent="1">
          <mxGeometry x="500" y="330" width="120" height="80" as="geometry" />
        </mxCell>
        <mxCell id="6FhIKOZWXNV_ax2WuFwc-15" value="" style="endArrow=none;html=1;rounded=0;entryX=0;entryY=0.5;entryDx=0;entryDy=0;" edge="1" parent="1" source="6FhIKOZWXNV_ax2WuFwc-2" target="6FhIKOZWXNV_ax2WuFwc-14">
          <mxGeometry width="50" height="50" relative="1" as="geometry">
            <mxPoint x="160" y="470" as="sourcePoint" />
            <mxPoint x="270" y="360" as="targetPoint" />
          </mxGeometry>
        </mxCell>
        <mxCell id="6FhIKOZWXNV_ax2WuFwc-16" value="Удаление чатов" style="ellipse;whiteSpace=wrap;html=1;" vertex="1" parent="1">
          <mxGeometry x="500" y="460" width="120" height="80" as="geometry" />
        </mxCell>
        <mxCell id="6FhIKOZWXNV_ax2WuFwc-17" value="" style="endArrow=none;html=1;rounded=0;entryX=0;entryY=0.5;entryDx=0;entryDy=0;" edge="1" parent="1" source="6FhIKOZWXNV_ax2WuFwc-2" target="6FhIKOZWXNV_ax2WuFwc-16">
          <mxGeometry width="50" height="50" relative="1" as="geometry">
            <mxPoint x="140" y="460" as="sourcePoint" />
            <mxPoint x="270" y="360" as="targetPoint" />
          </mxGeometry>
        </mxCell>
        <mxCell id="6FhIKOZWXNV_ax2WuFwc-18" value="Проверка корректности смысловых связей запроса" style="ellipse;whiteSpace=wrap;html=1;" vertex="1" parent="1">
          <mxGeometry x="640" y="20" width="120" height="80" as="geometry" />
        </mxCell>
        <mxCell id="6FhIKOZWXNV_ax2WuFwc-19" value="Модифицирование базы знаний" style="ellipse;whiteSpace=wrap;html=1;" vertex="1" parent="1">
          <mxGeometry x="330" y="585" width="120" height="80" as="geometry" />
        </mxCell>
        <mxCell id="6FhIKOZWXNV_ax2WuFwc-20" value="Просмотр истории запросов пользователей" style="ellipse;whiteSpace=wrap;html=1;" vertex="1" parent="1">
          <mxGeometry x="414" y="690" width="120" height="80" as="geometry" />
        </mxCell>
        <mxCell id="6FhIKOZWXNV_ax2WuFwc-21" value="Выдача привилегий администратора другим пользователям" style="ellipse;whiteSpace=wrap;html=1;" vertex="1" parent="1">
          <mxGeometry x="280" y="800" width="140" height="90" as="geometry" />
        </mxCell>
        <mxCell id="6FhIKOZWXNV_ax2WuFwc-22" value="Удаление пользователей" style="ellipse;whiteSpace=wrap;html=1;" vertex="1" parent="1">
          <mxGeometry x="130" y="870" width="120" height="80" as="geometry" />
        </mxCell>
        <mxCell id="6FhIKOZWXNV_ax2WuFwc-23" value="" style="endArrow=none;html=1;rounded=0;entryX=0.043;entryY=0.729;entryDx=0;entryDy=0;entryPerimeter=0;" edge="1" parent="1" source="6FhIKOZWXNV_ax2WuFwc-5" target="6FhIKOZWXNV_ax2WuFwc-19">
          <mxGeometry width="50" height="50" relative="1" as="geometry">
            <mxPoint x="160" y="700" as="sourcePoint" />
            <mxPoint x="210" y="650" as="targetPoint" />
          </mxGeometry>
        </mxCell>
        <mxCell id="6FhIKOZWXNV_ax2WuFwc-24" value="" style="endArrow=none;html=1;rounded=0;entryX=0;entryY=0.5;entryDx=0;entryDy=0;" edge="1" parent="1" source="6FhIKOZWXNV_ax2WuFwc-5" target="6FhIKOZWXNV_ax2WuFwc-20">
          <mxGeometry width="50" height="50" relative="1" as="geometry">
            <mxPoint x="410" y="720" as="sourcePoint" />
            <mxPoint x="460" y="670" as="targetPoint" />
          </mxGeometry>
        </mxCell>
        <mxCell id="6FhIKOZWXNV_ax2WuFwc-25" value="" style="endArrow=none;html=1;rounded=0;entryX=0;entryY=0;entryDx=0;entryDy=0;" edge="1" parent="1" source="6FhIKOZWXNV_ax2WuFwc-5" target="6FhIKOZWXNV_ax2WuFwc-21">
          <mxGeometry width="50" height="50" relative="1" as="geometry">
            <mxPoint x="160" y="683" as="sourcePoint" />
            <mxPoint x="424" y="740" as="targetPoint" />
          </mxGeometry>
        </mxCell>
        <mxCell id="6FhIKOZWXNV_ax2WuFwc-26" value="" style="endArrow=none;html=1;rounded=0;entryX=0.333;entryY=0.04;entryDx=0;entryDy=0;entryPerimeter=0;" edge="1" parent="1" source="6FhIKOZWXNV_ax2WuFwc-5" target="6FhIKOZWXNV_ax2WuFwc-22">
          <mxGeometry width="50" height="50" relative="1" as="geometry">
            <mxPoint x="102" y="751" as="sourcePoint" />
            <mxPoint x="250" y="880" as="targetPoint" />
          </mxGeometry>
        </mxCell>
        <mxCell id="6FhIKOZWXNV_ax2WuFwc-28" value="" style="endArrow=classic;html=1;rounded=0;" edge="1" parent="1" source="6FhIKOZWXNV_ax2WuFwc-8" target="6FhIKOZWXNV_ax2WuFwc-18">
          <mxGeometry width="50" height="50" relative="1" as="geometry">
            <mxPoint x="410" y="90" as="sourcePoint" />
            <mxPoint x="460" y="40" as="targetPoint" />
          </mxGeometry>
        </mxCell>
        <mxCell id="6FhIKOZWXNV_ax2WuFwc-30" value="&amp;lt;&amp;lt;include&amp;gt;&amp;gt;" style="text;html=1;align=center;verticalAlign=middle;whiteSpace=wrap;rounded=0;rotation=-20;" vertex="1" parent="1">
          <mxGeometry x="470" y="80" width="60" height="30" as="geometry" />
        </mxCell>
        <mxCell id="6FhIKOZWXNV_ax2WuFwc-31" value="Проверка, что чата с таким названием нет" style="ellipse;whiteSpace=wrap;html=1;" vertex="1" parent="1">
          <mxGeometry x="810" y="200" width="130" height="80" as="geometry" />
        </mxCell>
        <mxCell id="6FhIKOZWXNV_ax2WuFwc-32" value="" style="endArrow=classic;html=1;rounded=0;entryX=0.074;entryY=0.804;entryDx=0;entryDy=0;entryPerimeter=0;exitX=0.985;exitY=0.286;exitDx=0;exitDy=0;exitPerimeter=0;" edge="1" parent="1" source="6FhIKOZWXNV_ax2WuFwc-14" target="6FhIKOZWXNV_ax2WuFwc-31">
          <mxGeometry width="50" height="50" relative="1" as="geometry">
            <mxPoint x="610" y="368" as="sourcePoint" />
            <mxPoint x="752" y="250" as="targetPoint" />
          </mxGeometry>
        </mxCell>
        <mxCell id="6FhIKOZWXNV_ax2WuFwc-33" value="&amp;lt;&amp;lt;include&amp;gt;&amp;gt;" style="text;html=1;align=center;verticalAlign=middle;whiteSpace=wrap;rounded=0;rotation=-25;" vertex="1" parent="1">
          <mxGeometry x="660" y="290" width="60" height="30" as="geometry" />
        </mxCell>
        <mxCell id="6FhIKOZWXNV_ax2WuFwc-34" value="Проверка, что пользователь не является администратором" style="ellipse;whiteSpace=wrap;html=1;" vertex="1" parent="1">
          <mxGeometry x="320" y="990" width="150" height="80" as="geometry" />
        </mxCell>
        <mxCell id="6FhIKOZWXNV_ax2WuFwc-35" value="" style="endArrow=classic;html=1;rounded=0;entryX=-0.01;entryY=0.396;entryDx=0;entryDy=0;entryPerimeter=0;exitX=1;exitY=1;exitDx=0;exitDy=0;" edge="1" parent="1" source="6FhIKOZWXNV_ax2WuFwc-22" target="6FhIKOZWXNV_ax2WuFwc-34">
          <mxGeometry width="50" height="50" relative="1" as="geometry">
            <mxPoint x="239" y="959" as="sourcePoint" />
            <mxPoint x="440" y="870" as="targetPoint" />
          </mxGeometry>
        </mxCell>
        <mxCell id="6FhIKOZWXNV_ax2WuFwc-36" value="&amp;lt;&amp;lt;include&amp;gt;&amp;gt;" style="text;html=1;align=center;verticalAlign=middle;whiteSpace=wrap;rounded=0;rotation=45;" vertex="1" parent="1">
          <mxGeometry x="260" y="950" width="60" height="30" as="geometry" />
        </mxCell>
        <mxCell id="6FhIKOZWXNV_ax2WuFwc-37" value="Очистка введеных данных" style="ellipse;whiteSpace=wrap;html=1;" vertex="1" parent="1">
          <mxGeometry x="570" y="-100" width="120" height="80" as="geometry" />
        </mxCell>
        <mxCell id="6FhIKOZWXNV_ax2WuFwc-38" value="" style="endArrow=classic;html=1;rounded=0;exitX=0.5;exitY=0;exitDx=0;exitDy=0;entryX=0.027;entryY=0.639;entryDx=0;entryDy=0;entryPerimeter=0;" edge="1" parent="1" source="6FhIKOZWXNV_ax2WuFwc-8" target="6FhIKOZWXNV_ax2WuFwc-37">
          <mxGeometry width="50" height="50" relative="1" as="geometry">
            <mxPoint x="402" y="149" as="sourcePoint" />
            <mxPoint x="540" y="-10" as="targetPoint" />
          </mxGeometry>
        </mxCell>
        <mxCell id="6FhIKOZWXNV_ax2WuFwc-39" value="&amp;lt;&amp;lt;include&amp;gt;&amp;gt;" style="text;html=1;align=center;verticalAlign=middle;whiteSpace=wrap;rounded=0;rotation=-40;" vertex="1" parent="1">
          <mxGeometry x="384" y="45" width="60" height="30" as="geometry" />
        </mxCell>
      </root>
    </mxGraphModel>
  </diagram>
</mxfile>
